HIERARCHY
ROOT hip
{
  OFFSET 0 0 0
  CHANNELS 6 Xposition Yposition Zposition Zrotation Yrotation Xrotation
  JOINT abdomen
  {
    OFFSET 0 20.6881 -0.73152
    CHANNELS 3 Zrotation Xrotation Yrotation
    JOINT chest
    {
      OFFSET 0 11.7043 -0.48768
      CHANNELS 3 Zrotation Xrotation Yrotation
      JOINT neck
      {
        OFFSET 0 22.1894 -2.19456
        CHANNELS 3 Zrotation Xrotation Yrotation
        JOINT head
        {
          OFFSET -0.24384 7.07133 1.2192
          CHANNELS 3 Zrotation Xrotation Yrotation
          JOINT leftEye
          {
            OFFSET 4.14528 8.04674 8.04672
            CHANNELS 3 Zrotation Xrotation Yrotation
            End Site
            {
              OFFSET 1 0 0
            }
          }
          JOINT rightEye
          {
            OFFSET -3.6576 8.04674 8.04672
            CHANNELS 3 Zrotation Xrotation Yrotation
            End Site
            {
              OFFSET 1 0 0
            }
          }
        }
      }
      JOINT rCollar
      {
        OFFSET -2.68224 19.2634 -4.8768
        CHANNELS 3 Zrotation Xrotation Yrotation
        JOINT rShldr
        {
          OFFSET -8.77824 -1.95073 1.46304
          CHANNELS 3 Zrotation Xrotation Yrotation
          JOINT rForeArm
          {
            OFFSET -28.1742 -1.7115 0.48768
            CHANNELS 3 Zrotation Xrotation Yrotation
            JOINT rHand
            {
              OFFSET -22.5879 0.773209 7.07136
              CHANNELS 3 Zrotation Xrotation Yrotation
              JOINT rThumb1
              {
                OFFSET -1.2192 -0.487915 3.41376
                CHANNELS 3 Zrotation Xrotation Yrotation
                JOINT rThumb2
                {
                  OFFSET -3.37035 -0.52449 3.41376
                  CHANNELS 3 Zrotation Xrotation Yrotation
                  End Site
                  {
                    OFFSET -1.78271 -1.18214 1.43049
                  }
                }
              }
              JOINT rIndex1
              {
                OFFSET -7.75947 0.938293 5.60832
                CHANNELS 3 Zrotation Xrotation Yrotation
                JOINT rIndex2
                {
                  OFFSET -2.54057 -0.884171 1.56538
                  CHANNELS 3 Zrotation Xrotation Yrotation
                  End Site
                  {
                    OFFSET -1.62519 -0.234802 1.16502
                  }
                }
              }
              JOINT rMid1
              {
                OFFSET -8.24714 1.18213 3.41376
                CHANNELS 3 Zrotation Xrotation Yrotation
                JOINT rMid2
                {
                  OFFSET -3.10165 -0.590103 1.0647
                  CHANNELS 3 Zrotation Xrotation Yrotation
                  End Site
                  {
                    OFFSET -2.48547 -0.328903 0.83742
                  }
                }
              }
              JOINT rRing1
              {
                OFFSET -8.82822 0.546677 1.51678
                CHANNELS 3 Zrotation Xrotation Yrotation
                JOINT rRing2
                {
                  OFFSET -2.60934 -0.819778 -0.0198488
                  CHANNELS 3 Zrotation Xrotation Yrotation
                  End Site
                  {
                    OFFSET -2.33842 -0.294052 0.168128
                  }
                }
              }
              JOINT rPinky1
              {
                OFFSET -8.27202 -0.0477905 -0.4584
                CHANNELS 3 Zrotation Xrotation Yrotation
                JOINT rPinky2
                {
                  OFFSET -1.82734 -0.647385 -0.700984
                  CHANNELS 3 Zrotation Xrotation Yrotation
                  End Site
                  {
                    OFFSET -1.69225 -0.51767 -0.607171
                  }
                }
              }
            }
          }
        }
      }
      JOINT lCollar
      {
        OFFSET 2.68224 19.2634 -4.8768
        CHANNELS 3 Zrotation Xrotation Yrotation
        JOINT lShldr
        {
          OFFSET 8.77824 -1.95073 1.46304
          CHANNELS 3 Zrotation Xrotation Yrotation
          JOINT lForeArm
          {
            OFFSET 28.1742 -1.7115 0.48768
            CHANNELS 3 Zrotation Xrotation Yrotation
            JOINT lHand
            {
              OFFSET 22.5879 0.773209 7.07136
              CHANNELS 3 Zrotation Xrotation Yrotation
              JOINT lThumb1
              {
                OFFSET 1.2192 -0.487915 3.41376
                CHANNELS 3 Zrotation Xrotation Yrotation
                JOINT lThumb2
                {
                  OFFSET 3.37035 -0.52449 3.41376
                  CHANNELS 3 Zrotation Xrotation Yrotation
                  End Site
                  {
                    OFFSET 1.78271 -1.18214 1.43049
                  }
                }
              }
              JOINT lIndex1
              {
                OFFSET 7.75947 0.938293 5.60832
                CHANNELS 3 Zrotation Xrotation Yrotation
                JOINT lIndex2
                {
                  OFFSET 2.54057 -0.884171 1.56538
                  CHANNELS 3 Zrotation Xrotation Yrotation
                  End Site
                  {
                    OFFSET 1.62519 -0.234802 1.16502
                  }
                }
              }
              JOINT lMid1
              {
                OFFSET 8.24714 1.18213 3.41376
                CHANNELS 3 Zrotation Xrotation Yrotation
                JOINT lMid2
                {
                  OFFSET 3.10165 -0.590103 1.0647
                  CHANNELS 3 Zrotation Xrotation Yrotation
                  End Site
                  {
                    OFFSET 2.48547 -0.328903 0.83742
                  }
                }
              }
              JOINT lRing1
              {
                OFFSET 8.82822 0.546677 1.51678
                CHANNELS 3 Zrotation Xrotation Yrotation
                JOINT lRing2
                {
                  OFFSET 2.60934 -0.819778 -0.0198488
                  CHANNELS 3 Zrotation Xrotation Yrotation
                  End Site
                  {
                    OFFSET 2.33842 -0.294052 0.168128
                  }
                }
              }
              JOINT lPinky1
              {
                OFFSET 8.27202 -0.0477905 -0.4584
                CHANNELS 3 Zrotation Xrotation Yrotation
                JOINT lPinky2
                {
                  OFFSET 1.82734 -0.647385 -0.700984
                  CHANNELS 3 Zrotation Xrotation Yrotation
                  End Site
                  {
                    OFFSET 1.69225 -0.51767 -0.607171
                  }
                }
              }
            }
          }
        }
      }
    }
  }
  JOINT rButtock
  {
    OFFSET -8.77824 4.35084 1.2192
    CHANNELS 3 Zrotation Xrotation Yrotation
    JOINT rThigh
    {
      OFFSET 0 -1.70687 -2.19456
      CHANNELS 3 Zrotation Xrotation Yrotation
      JOINT rShin
      {
        OFFSET 0 -36.8199 0.73152
        CHANNELS 3 Zrotation Xrotation Yrotation
        JOINT rFoot
        {
          OFFSET 0.73152 -45.1104 -5.12064
          CHANNELS 3 Zrotation Xrotation Yrotation
          End Site
          {
            OFFSET -1.1221 -3.69964 12.103
          }
        }
      }
    }
  }
  JOINT lButtock
  {
    OFFSET 8.77824 4.35084 1.2192
    CHANNELS 3 Zrotation Xrotation Yrotation
    JOINT lThigh
    {
      OFFSET 0 -1.70687 -2.19456
      CHANNELS 3 Zrotation Xrotation Yrotation
      JOINT lShin
      {
        OFFSET 0 -36.8199 0.73152
        CHANNELS 3 Zrotation Xrotation Yrotation
        JOINT lFoot
        {
          OFFSET -0.73152 -45.1104 -5.12064
          CHANNELS 3 Zrotation Xrotation Yrotation
          End Site
          {
            OFFSET 1.1221 -3.69964 12.103
          }
        }
      }
    }
  }
}
MOTION
Frames:	4
Frame Time:	0.03333
0.0253452311843306 35.5009054187601 0.039267144404586764 -2.9079771041870117 8.00197982788086 4.437027931213379 -2.4480552673339844 15.008347511291504 3.779207468032837 2.7517998218536377 -9.800887107849121 1.1786140203475952 -5.110505104064941 15.630243301391602 -3.533036470413208 9.237616539001465 -26.211223602294922 -5.159337043762207 -0.005185718648135662 0.003984235692769289 -0.021268347278237343 -0.015476399101316929 -0.01320639532059431 -0.033806540071964264 0.013939096592366695 0.0026137353852391243 -0.022229980677366257 45.93251037597656 35.7966194152832 18.093917846679688 -28.16838264465332 -32.155555725097656 62.69614791870117 -1.5761915445327759 -10.918574333190918 -1.5630853176116943 0.023694952949881554 0.024194112047553062 -0.024422749876976013 0.022204643115401268 0.003983166068792343 -0.034999728202819824 -0.010086031630635262 -0.01376417651772499 0.0250935647636652 7.719512462615967 5.446930408477783 0.3930662274360657 0.004000140354037285 -0.00621721800416708 0.019615545868873596 2.9049696922302246 0.9872372150421143 0.13115108013153076 0.00205518351867795 -0.019319934770464897 -0.012979893013834953 10.287833213806152 0.7316296100616455 0.0475458949804306 0.00845823809504509 -0.007829283364117146 -0.013500923290848732 2.2288386821746826 -0.7470217943191528 -0.22381234169006348 -0.004733186215162277 -0.00898068118840456 0.004015610087662935 -52.304412841796875 39.39090347290039 -29.527158737182617 27.509559631347656 -30.640670776367188 -59.11989974975586 1.9207748174667358 -14.220634460449219 2.0421159267425537 9.027541091199964e-05 -0.03176222741603851 -0.0001612063351785764 0.006985621061176062 -0.030566008761525154 -0.021421287208795547 -0.017803436145186424 -0.0011981995776295662 -0.00585941132158041 -7.708974361419678 5.481945991516113 -0.4148681163787842 0.001549411448650062 -0.021139422431588173 -0.0017574084922671318 -2.9134445190429688 0.976890504360199 -0.15205369889736176 -0.0010287660406902432 0.00205390527844429 -0.03970101848244667 -10.295692443847656 0.7173464894294739 -0.039415258914232254 0.006790663581341505 -0.03925987333059311 0.009441470727324486 -2.216423749923706 -0.7189120650291443 0.21603387594223022 0.0009679793729446828 -0.015673646703362465 -0.009491611272096634 -28.094148635864258 -39.17546844482422 -23.569156646728516 -1.7393213510513306 65.39456939697266 2.7735393047332764 -4.582206726074219 -10.606337547302246 -9.864580154418945 -0.025252914056181908 -0.0030027199536561966 -0.010724707506597042 33.21835708618164 -37.75196075439453 26.258726119995117 1.8675874471664429 65.97884368896484 -3.0114762783050537 5.1277570724487305 -10.778982162475586 13.868343353271484
0.06629637740508251 35.53816068558793 0.05330937300789829 -2.914030075073242 8.450167655944824 4.3330278396606445 -2.5406405925750732 15.043904304504395 3.8151159286499023 2.7533111572265625 -9.832868576049805 1.1907172203063965 -5.121425628662109 15.647048950195312 -3.4811477661132812 9.3495454788208 -26.132719039916992 -5.112160682678223 -0.009162832982838154 0.009713415987789631 -0.008510983549058437 -0.02108597382903099 -0.016506433486938477 -0.08620689809322357 -0.0002480406838003546 0.01621529459953308 -0.06590916961431503 45.75157928466797 35.7949333190918 18.271800994873047 -28.21366310119629 -32.212459564208984 62.79518508911133 -1.598983883857727 -10.943696975708008 -1.6253583431243896 0.042185939848423004 0.04921288043260574 -0.06054743006825447 0.03183048591017723 0.008186250925064087 -0.07513371855020523 -0.025884171947836876 -0.02364669367671013 0.03943096846342087 7.73502254486084 5.417189121246338 0.36313867568969727 0.01932513155043125 0.006475609261542559 0.040799953043460846 2.919768810272217 1.0134615898132324 0.17053282260894775 -0.005083115305751562 -0.03102876804769039 -0.03753358870744705 10.325019836425781 0.7130951881408691 0.07893932610750198 0.011521836742758751 -0.012531938031315804 -0.005648428108543158 2.2273898124694824 -0.7687821388244629 -0.25583234429359436 0.004996627103537321 -0.017565326765179634 0.007969044148921967 -52.16961669921875 39.46170425415039 -29.65260887145996 27.52239227294922 -30.755022048950195 -59.14252471923828 1.9532015323638916 -14.262330055236816 2.060774564743042 0.01362055167555809 -0.046561311930418015 0.003005410311743617 0.04475902393460274 -0.07459591329097748 -0.04500282183289528 -0.04679480567574501 -0.007280830293893814 -0.015637284144759178 -7.693860054016113 5.502755641937256 -0.4309588074684143 -0.006868273951113224 -0.05544964596629143 -0.019183604046702385 -2.9087557792663574 0.9959697127342224 -0.19572190940380096 0.02866627648472786 0.022733936086297035 -0.07696150988340378 -10.312030792236328 0.7037050724029541 -0.03537239506840706 0.011342494748532772 -0.10927728563547134 0.024955831468105316 -2.2151565551757812 -0.6875335574150085 0.21221709251403809 0.010173777118325233 -0.03267483785748482 -0.043866582214832306 -28.206207275390625 -39.2528076171875 -23.62855339050293 -1.8105857372283936 65.61396789550781 2.834329605102539 -4.555063247680664 -10.72054672241211 -9.690596580505371 -0.06895524263381958 -0.00675541628152132 -0.007802090607583523 33.08407211303711 -37.71088409423828 26.13812828063965 1.8831679821014404 65.91480255126953 -2.9924349784851074 5.102504730224609 -10.801155090332031 13.945547103881836
0.28121393588994015 39.074678958564206 0.6421537484547434 -12.948395729064941 0.9907593131065369 -3.491387128829956 7.642045497894287 19.980112075805664 8.201557159423828 0.6271308660507202 -9.20693588256836 1.8762567043304443 -6.3996195793151855 16.257614135742188 -7.122601509094238 12.982992172241211 -27.84058952331543 -12.429557800292969 0.0908050611615181 -0.07923614233732224 -0.14067764580249786 0.05596543848514557 -0.22892941534519196 0.10403244942426682 -0.07987844944000244 0.027837412431836128 -0.27157294750213623 55.50040817260742 30.803382873535156 13.361489295959473 -20.878437042236328 -14.449666023254395 40.16289138793945 -0.25258007645606995 8.528400421142578 1.4332287311553955 0.035965949296951294 -0.03715139999985695 -0.061355799436569214 0.022823983803391457 0.0031281327828764915 -0.19666370749473572 0.18212313950061798 -0.1353473961353302 0.22148717939853668 8.168457984924316 5.383848190307617 0.44854143261909485 -0.03141240030527115 -0.2204436957836151 0.40942567586898804 2.922088146209717 1.0107966661453247 0.4053105413913727 0.020718272775411606 -0.18484365940093994 -0.18103966116905212 10.179115295410156 0.7606037259101868 -0.020051967352628708 -0.19695210456848145 -0.025896959006786346 -0.12315582484006882 2.1097466945648193 -0.6575469374656677 -0.21113181114196777 -0.016675833612680435 -0.15966683626174927 0.1541816145181656 -63.3468132019043 42.822540283203125 -26.038623809814453 18.5845890045166 -11.041627883911133 -35.44860076904297 0.2774595618247986 8.444461822509766 -0.9922578930854797 0.24872039258480072 -0.0581362321972847 0.010822259820997715 0.24504134058952332 -0.15047773718833923 -0.4857158064842224 0.1234167218208313 -0.33100834488868713 0.10002781450748444 -7.4190568923950195 5.4138288497924805 -0.7696269154548645 -0.12130200862884521 -0.021224571391940117 0.0399927981197834 -2.887915849685669 1.1168383359909058 -0.09970146417617798 0.02437932975590229 0.0952138602733612 0.0964498370885849 -10.280660629272461 0.6982949376106262 -0.2571941912174225 0.056415826082229614 -0.4029431641101837 -0.31217771768569946 -2.2467169761657715 -0.5474770665168762 0.36219629645347595 -0.12419484555721283 -0.283372700214386 0.002944725565612316 -0.583060085773468 -24.053756713867188 -14.343451499938965 -4.462492942810059 75.86991119384766 5.661500930786133 -14.405427932739258 -22.87720489501953 -28.33069610595703 -0.13700313866138458 -0.098332479596138 -0.02597934752702713 31.405174255371094 -65.10896301269531 22.935453414916992 3.4829211235046387 77.49826049804688 -3.1614363193511963 -1.0186620950698853 0.2088974565267563 -2.587529182434082
0.38690278900283653 40.07010731310728 1.01346089438534 -10.163371086120605 -8.75472640991211 -6.649458885192871 3.522657632827759 23.183162689208984 12.306239128112793 -1.5721096992492676 -8.076172828674316 3.004770278930664 -6.590935230255127 15.184669494628906 -6.949029445648193 11.013392448425293 -24.551448822021484 -11.250306129455566 0.017910664901137352 0.0598057322204113 -0.5005035400390625 0.05056297779083252 -0.2805574834346771 0.022257540374994278 0.11368287354707718 0.22131310403347015 -0.12917694449424744 55.554691314697266 38.40162658691406 11.09850788116455 -20.393211364746094 -14.9679536819458 40.32991027832031 -0.3618018627166748 16.461977005004883 2.607515335083008 -0.08482269942760468 0.11447370052337646 -0.35647156834602356 -0.03654693439602852 0.03835267201066017 -0.6047214865684509 0.30632513761520386 -0.20555377006530762 0.4025367796421051 8.0433349609375 5.409818649291992 0.3725815713405609 0.3360723853111267 -0.27743086218833923 0.3572997450828552 2.810558557510376 1.1717157363891602 0.33363738656044006 0.2803943455219269 -0.295031875371933 -0.22394315898418427 10.415050506591797 0.8769819140434265 -0.26871418952941895 0.20983560383319855 -0.10762020945549011 -0.035863008350133896 2.230348587036133 -0.8944002389907837 -0.17739157378673553 -0.1192653700709343 -0.5639917254447937 0.5507025718688965 -67.30450439453125 41.729740142822266 -17.098175048828125 19.217905044555664 -11.559730529785156 -35.43994903564453 0.47125452756881714 4.446118354797363 -0.12825845181941986 0.14247100055217743 0.05152644217014313 -0.26634910702705383 0.4525470733642578 -0.22443991899490356 -0.5534217357635498 0.050850674510002136 0.02891015075147152 0.18480776250362396 -7.609447479248047 5.377474308013916 -0.9387566447257996 -0.1120915487408638 0.017873656004667282 0.45081353187561035 -3.4275529384613037 1.1786425113677979 -0.1833779364824295 -0.006885023321956396 -0.059444207698106766 -0.260664165019989 -10.158982276916504 0.7602135539054871 -0.3424108922481537 0.03289027512073517 0.3160616457462311 -0.23881395161151886 -2.434946060180664 -0.43309298157691956 0.23783110082149506 0.07947368919849396 -0.05549348145723343 -0.2834774851799011 -3.0551836490631104 -20.11992645263672 -13.067700386047363 -1.5977476835250854 74.18897247314453 2.622493267059326 -15.786258697509766 -25.122594833374023 -24.833662033081055 -0.09120006859302521 0.46244898438453674 0.14271482825279236 24.756650924682617 -63.59646987915039 14.351898193359375 2.8923282623291016 62.98439407348633 -1.7970502376556396 -1.2489310503005981 11.266790390014648 -1.4907891750335693
